<?xml version="1.0" encoding="UTF-8" standalone="no"?><!DOCTYPE svg PUBLIC "-//W3C//DTD SVG 1.1//EN" "http://www.w3.org/Graphics/SVG/1.1/DTD/svg11.dtd"><svg width="100%" height="100%" viewBox="0 0 4267 4267" version="1.1" xmlns="http://www.w3.org/2000/svg" xmlns:xlink="http://www.w3.org/1999/xlink" xml:space="preserve" xmlns:serif="http://www.serif.com/" style="fill-rule:evenodd;clip-rule:evenodd;stroke-linejoin:round;stroke-miterlimit:2;"><g id="Layer-1" serif:id="Layer 1"><path d="M2281.17,503.741l-147.901,-46.966l-147.895,46.966l-1214.65,386.367l-0,1470.11c-0,560.559 408.791,904.555 1214.65,1359.03c25.633,14.5 51.566,28.996 77.991,43.7l69.904,38.9l70.009,-38.9c26.325,-14.6 52.354,-29.2 77.891,-43.595c805.755,-454.575 1214.74,-798.571 1214.74,-1359.13l0,-1470.11l-1214.74,-386.367Z" style="fill:#2cb4b6;fill-rule:nonzero;"/><path d="M857.78,956.71l0,1403.51c0,521.575 410.929,852.204 1169.2,1279.88c25.571,14.42 51.342,28.837 77.588,43.445l28.733,15.988l28.796,-16c26.283,-14.563 52.125,-29.067 77.487,-43.363c758.342,-427.825 1169.3,-758.533 1169.3,-1279.94l0,-1403.5l-1275.62,-405.68l-1275.49,405.663Zm1275.45,2947.46l-111.079,-61.829c-26.588,-14.787 -52.7,-29.383 -78.471,-43.975c-817.129,-460.837 -1259.98,-826.537 -1259.98,-1438.14l-0,-1536.71l1449.57,-461.012l1449.7,461.012l0,1536.71c0,611.445 -442.887,977.195 -1260.15,1438.28c-25.766,14.508 -51.946,29.225 -78.5,43.925l-111.083,61.741Z" style="fill:#2cb4b6;fill-rule:nonzero;"/><path d="M2133.29,616.996l-1214.71,386.288l0,1356.95c0,455.621 306.067,762.666 1214.71,1267.81l0,-3011.05Z" style="fill:#92e8e5;fill-rule:nonzero;"/><path d="M2133.29,616.996l1214.71,386.288l-0,1356.95c-0,455.621 -306.067,762.666 -1214.71,1267.81l0,-3011.05Z" style="fill:#edfbfb;fill-rule:nonzero;"/><path d="M2494.59,1808.18c0,206.633 -161.758,374.142 -361.296,374.142c-199.541,-0 -361.3,-167.509 -361.3,-374.142c0,-206.633 161.759,-374.146 361.3,-374.146c199.538,0 361.296,167.513 361.296,374.146" style="fill:#057f81;fill-rule:nonzero;"/><path d="M2133.29,2155.16c-224.358,0 -406.237,188.346 -406.237,420.68l812.475,-0c-0,-232.334 -181.883,-420.68 -406.238,-420.68" style="fill:#057f81;fill-rule:nonzero;"/></g></svg>